<?xml version="1.0" encoding="UTF-8" standalone="no"?>
<!-- Created with Inkscape (http://www.inkscape.org/) -->

<svg
   xmlns:dc="http://purl.org/dc/elements/1.1/"
   xmlns:cc="http://creativecommons.org/ns#"
   xmlns:rdf="http://www.w3.org/1999/02/22-rdf-syntax-ns#"
   xmlns:svg="http://www.w3.org/2000/svg"
   xmlns="http://www.w3.org/2000/svg"
   xmlns:sodipodi="http://sodipodi.sourceforge.net/DTD/sodipodi-0.dtd"
   xmlns:inkscape="http://www.inkscape.org/namespaces/inkscape"
   id="svg4136"
   version="1.1"
   inkscape:version="0.91 r13725"
   xml:space="preserve"
   width="720"
   height="540"
   viewBox="0 0 720 540"
   sodipodi:docname="first_stage_disgram.svg"><metadata
     id="metadata4142"><rdf:RDF><cc:Work
         rdf:about=""><dc:format>image/svg+xml</dc:format><dc:type
           rdf:resource="http://purl.org/dc/dcmitype/StillImage" /><dc:title></dc:title></cc:Work></rdf:RDF></metadata><defs
     id="defs4140"><marker
       inkscape:stockid="Arrow2Lstart"
       orient="auto"
       refY="0.0"
       refX="0.0"
       id="Arrow2Lstart"
       style="overflow:visible"
       inkscape:isstock="true"><path
         id="path4580"
         style="fill-rule:evenodd;stroke-width:0.625;stroke-linejoin:round;stroke:#000000;stroke-opacity:1;fill:#000000;fill-opacity:1"
         d="M 8.7185878,4.0337352 L -2.2072895,0.016013256 L 8.7185884,-4.0017078 C 6.9730900,-1.6296469 6.9831476,1.6157441 8.7185878,4.0337352 z "
         transform="scale(1.1) translate(1,0)" /></marker><marker
       inkscape:stockid="Arrow2Lend"
       orient="auto"
       refY="0.0"
       refX="0.0"
       id="Arrow2Lend"
       style="overflow:visible;"
       inkscape:isstock="true"><path
         id="path4583"
         style="fill-rule:evenodd;stroke-width:0.625;stroke-linejoin:round;stroke:#000000;stroke-opacity:1;fill:#000000;fill-opacity:1"
         d="M 8.7185878,4.0337352 L -2.2072895,0.016013256 L 8.7185884,-4.0017078 C 6.9730900,-1.6296469 6.9831476,1.6157441 8.7185878,4.0337352 z "
         transform="scale(1.1) rotate(180) translate(1,0)" /></marker><clipPath
       clipPathUnits="userSpaceOnUse"
       id="clipPath4156"><path
         d="m 720,432 4464,0 0,3456 -4464,0 0,-3456 z"
         id="path4158"
         inkscape:connector-curvature="0" /></clipPath><marker
       inkscape:stockid="Arrow2Lstart"
       orient="auto"
       refY="0"
       refX="0"
       id="Arrow2Lstart-6"
       style="overflow:visible"
       inkscape:isstock="true"><path
         inkscape:connector-curvature="0"
         id="path4580-9"
         style="fill:#000000;fill-opacity:1;fill-rule:evenodd;stroke:#000000;stroke-width:0.625;stroke-linejoin:round;stroke-opacity:1"
         d="M 8.7185878,4.0337352 -2.2072895,0.01601326 8.7185884,-4.0017078 c -1.7454984,2.3720609 -1.7354408,5.6174519 -6e-7,8.035443 z"
         transform="matrix(1.1,0,0,1.1,1.1,0)" /></marker><marker
       inkscape:stockid="Arrow2Lend"
       orient="auto"
       refY="0"
       refX="0"
       id="Arrow2Lend-4"
       style="overflow:visible"
       inkscape:isstock="true"><path
         inkscape:connector-curvature="0"
         id="path4583-3"
         style="fill:#000000;fill-opacity:1;fill-rule:evenodd;stroke:#000000;stroke-width:0.625;stroke-linejoin:round;stroke-opacity:1"
         d="M 8.7185878,4.0337352 -2.2072895,0.01601326 8.7185884,-4.0017078 c -1.7454984,2.3720609 -1.7354408,5.6174519 -6e-7,8.035443 z"
         transform="matrix(-1.1,0,0,-1.1,-1.1,0)" /></marker></defs><sodipodi:namedview
     pagecolor="#ffffff"
     bordercolor="#666666"
     borderopacity="1"
     objecttolerance="10"
     gridtolerance="10"
     guidetolerance="10"
     inkscape:pageopacity="0"
     inkscape:pageshadow="2"
     inkscape:window-width="1920"
     inkscape:window-height="1018"
     id="namedview4138"
     showgrid="false"
     inkscape:zoom="1.5759259"
     inkscape:cx="464.80951"
     inkscape:cy="244.09541"
     inkscape:window-x="-8"
     inkscape:window-y="-8"
     inkscape:window-maximized="1"
     inkscape:current-layer="g4144" /><g
     id="g4144"
     inkscape:groupmode="layer"
     inkscape:label="ink_ext_XXXXXX"
     transform="matrix(1.25,0,0,-1.25,0,540)"><g
       id="g4146"
       transform="scale(0.1,0.1)"><path
         d="m 0,0 5760,0 0,4320 L 0,4320 0,0 Z"
         style="fill:#ffffff;fill-opacity:1;fill-rule:nonzero;stroke:none"
         id="path4148"
         inkscape:connector-curvature="0" /><path
         d="m 720,432 4464,0 0,3456 -4464,0 0,-3456 z"
         style="fill:#ffffff;fill-opacity:1;fill-rule:nonzero;stroke:none"
         id="path4150"
         inkscape:connector-curvature="0" /><g
         id="g4152"><g
           id="g4154"
           clip-path="url(#clipPath4156)"><path
             d="m 720,3456 113.344,-1.08 43.594,-3.02 34.875,-4.82 26.156,-5.5 26.156,-7.43 26.156,-9.62 26.159,-12.06 26.15,-14.73 26.16,-17.61 26.16,-20.71 26.15,-24.01 26.16,-27.53 26.16,-31.27 26.15,-35.26 26.16,-39.53 26.15,-44.12 26.16,-49.06 26.16,-54.47 26.15,-60.39 26.16,-67 26.15,-74.44 26.16,-82.99 26.16,-93.02 26.15,-105.12 17.44,-78.26 17.44,-86.26 17.44,-96.11 17.43,-108.74 17.44,-125.93 17.44,-151.68 8.72,-90.81 8.72,-106.9 8.72,-134.2 8.71,-196.65 8.72,-647.518 8.72,514.388 8.72,30.39 8.72,-49.46 8.72,-145.79 8.72,-229.532 8.71,298.032 8.72,86.2 8.72,34.51 8.72,4.88 8.72,-19.54 8.72,-46.87 8.72,-90.66 8.72,-230.387 8.71,70.574 8.72,176.453 8.72,77.42 8.72,41.6 8.72,20.32 8.72,4.15 8.72,-10.64 8.72,-26.67 8.72,-47.67 8.71,-83.2 8.72,-183.517 8.72,-62.465 8.72,224.662 8.72,91.3 8.72,51.62 8.72,29.99 8.71,14.69 8.72,1.78 8.72,-10.83 8.72,-25.03 8.72,-43.86 8.72,-75.1 8.72,-154.085 8.72,-199.067 8.71,296.042 8.72,102.95 8.72,57.21 8.72,33.39 8.72,16.6 8.72,2.14 8.72,-12.67 8.72,-30.68 8.71,-57.72 8.72,-114.53 8.72,-600.579 8.72,592.169 8.72,127.9 8.72,62.9 8.72,28.63 8.72,-1.97 8.71,-46.02 8.72,-178.78 8.72,94.87 8.72,227.49 8.72,126.49 8.72,92.77 8.72,74.88 8.72,63.43 17.43,104.29 17.44,84.01 17.44,69.88 17.44,59.16 17.43,50.53 17.44,43.28 17.44,37.03 17.44,31.48 17.43,26.48 17.44,21.88 17.44,17.58 17.44,13.54 17.43,9.65 17.44,5.91 17.44,2.25 17.44,-1.37 17.43,-4.98 17.44,-8.61 17.44,-12.32 17.44,-16.13 17.43,-20.11 17.44,-24.29 17.44,-28.77 17.44,-33.62 17.43,-38.98 17.44,-45.03 17.44,-52.01 17.44,-60.37 17.43,-70.76 17.44,-84.53 17.44,-104.49 8.72,-63.5 8.72,-75.1 8.72,-93.57 8.71,-129.59 8.72,-248.24 8.72,-19.4 8.72,156.63 8.72,45.92 8.72,6.71 8.72,-19.32 8.71,-45.09 8.72,-82.73 8.72,-181.259 8.72,-81.359 8.72,228.578 8.72,89.51 8.72,49.38 8.72,27.95 8.71,13.18 8.72,1.14 8.72,-10.16 8.72,-22.24 8.72,-37.17 8.72,-59.25 8.72,-102.4 8.72,-276.893 17.43,324.833 8.72,78.74 8.72,47.93 8.72,30.26 8.72,17.76 8.72,7.58 8.72,-1.73 8.72,-11.18 8.71,-21.85 8.72,-35.46 8.72,-55.77 8.72,-94.56 8.72,-230.084 8.72,72.047 8.72,182.087 8.72,85.11 8.71,51.49 8.72,32.58 8.72,19.18 8.72,8.01 8.72,-2.57 8.72,-13.97 8.72,-27.93 8.71,-48.06 8.72,-84.95 8.72,-201.473 8.72,12.793 8.72,202.72 8.72,90.03 8.72,51.97 8.72,28.84 8.71,9.34 8.72,-12.66 8.72,-46.85 8.72,-136.25 8.72,-87.68 8.72,286.75 8.72,132.68 8.72,92.73 8.71,73.15 8.72,61.14 17.44,99.42 17.44,79.41 17.44,65.75 17.43,55.51 17.44,47.31 17.44,40.46 17.44,34.54 17.43,29.3 17.44,24.57 17.44,20.19 17.44,16.11 17.43,12.23 17.44,8.52 17.44,4.91 17.44,1.35 17.43,-2.17 17.44,-5.7 17.44,-9.29 17.44,-12.97 17.43,-16.8 17.44,-20.8 17.44,-25.08 17.44,-29.71 17.43,-34.8 17.44,-40.53 17.44,-47.13 17.44,-54.99 17.43,-64.75 17.44,-77.6 17.44,-96.15 8.72,-58.43 8.72,-68.98 8.71,-85.42 8.72,-116.18 8.72,-203.48 8.72,-155.175 8.72,220.235 8.72,64.39 8.72,21.64 8.72,-2.56 8.72,-22.05 8.71,-43.07 8.72,-73.87 8.72,-144.39 8.72,-313.02 8.72,366.66 8.72,107.77 8.72,58.98 8.71,35.59 8.72,20.61 8.72,9.24 8.72,-0.6 8.72,-10.1 8.72,-20.39 8.72,-32.95 8.72,-50.71 8.71,-81.98 8.72,-167.183 8.72,-139.633 8.72,262.296 8.72,100.25 8.72,58.94 8.72,38.15 8.72,24.63 8.71,14.35 8.72,5.57 8.72,-2.73 8.72,-11.36 8.72,-21.22 8.72,-33.86 8.72,-52.58 8.72,-87.27 8.71,-194.212 8.72,-23.028 8.72,212.96 8.72,92.78 8.72,55.73 8.72,35.63 8.72,21.5 8.72,9.59 8.71,-2.19 8.72,-15.85 8.72,-34.83 8.72,-68.73 8.72,-168.9 8.72,-35.139 8.72,242.119 8.72,113.85 8.71,77.11 8.72,58.63 8.72,47.08 8.72,38.92 8.72,32.66 8.72,27.57 8.72,23.22 8.72,19.39 8.72,15.86 8.71,12.53 8.72,9.28 8.72,6.02 8.72,2.62 8.72,-1.01 8.72,-5.08 8.72,-9.81 8.71,-15.63 8.72,-23.26 8.72,-34.17 8.72,-51.9 8.72,-87.77 8.72,-215.27 8.72,64.62 8.72,198.7 8.71,100.59 8.72,69.02 8.72,52.9 8.72,42.91 8.72,36 17.44,57.64 17.43,44.19 17.44,34.45 17.44,26.77 17.44,20.34 17.43,14.71 17.44,9.6 17.44,4.81 8.72,0.68 8.72,-0.44 17.43,-4.25 17.44,-8.73 17.44,-13.31 17.44,-18.07 17.43,-23.13 17.44,-28.63 17.44,-34.75 17.44,-41.8 17.43,-50.23 17.44,-60.8 17.44,-75.08 8.72,-44.92 8.72,-51.74 8.72,-61.18 8.71,-75.5 8.72,-100.88 8.72,-163.1 8.72,-456.083 8.72,436.003 8.72,90.43 8.72,38.18 8.72,13.06 8.71,-4.14 8.72,-19.16 8.72,-35.47 8.72,-57.73 8.72,-98.82 8.72,-247.002 8.72,101.926 8.72,171.636 8.72,80.79 8.71,48.55 8.72,30.6 8.72,18.21 8.72,8.39 8.72,-0.32 8.72,-8.85 8.72,-18.09 8.71,-29.2 8.72,-44.42 8.72,-69.39 8.72,-126.101 0,0"
             style="fill:none;stroke:#0000ff;stroke-width:10;stroke-linecap:square;stroke-linejoin:round;stroke-miterlimit:10;stroke-dasharray:none;stroke-opacity:1"
             id="path4160"
             inkscape:connector-curvature="0" /></g></g><path
         d="m 720,432 0,40"
         style="fill:#000000;fill-opacity:1;fill-rule:nonzero;stroke:none"
         id="path4162"
         inkscape:connector-curvature="0" /><path
         d="m 720,432 0,40"
         style="fill:none;stroke:#000000;stroke-width:5;stroke-linecap:butt;stroke-linejoin:round;stroke-miterlimit:10;stroke-dasharray:none;stroke-opacity:1"
         id="path4164"
         inkscape:connector-curvature="0" /><path
         d="m 720,3888 0,-40"
         style="fill:#000000;fill-opacity:1;fill-rule:nonzero;stroke:none"
         id="path4166"
         inkscape:connector-curvature="0" /><path
         d="m 720,3888 0,-40"
         style="fill:none;stroke:#000000;stroke-width:5;stroke-linecap:butt;stroke-linejoin:round;stroke-miterlimit:10;stroke-dasharray:none;stroke-opacity:1"
         id="path4168"
         inkscape:connector-curvature="0" /><g
         id="g4170"
         transform="scale(10,10)"><text
           transform="matrix(1,0,0,-1,62.9844,30.075)"
           style="font-variant:normal;font-weight:normal;font-size:12px;font-family:Arial;-inkscape-font-specification:Arial;writing-mode:lr-tb;fill:#000000;fill-opacity:1;fill-rule:nonzero;stroke:none"
           id="text4172"><tspan
             x="0 7.6289053 11.994141"
             y="0"
             sodipodi:role="line"
             id="tspan4174">0.0</tspan></text>
</g><path
         d="m 1612.8,432 0,40"
         style="fill:#000000;fill-opacity:1;fill-rule:nonzero;stroke:none"
         id="path4176"
         inkscape:connector-curvature="0" /><path
         d="m 1612.8,432 0,40"
         style="fill:none;stroke:#000000;stroke-width:5;stroke-linecap:butt;stroke-linejoin:round;stroke-miterlimit:10;stroke-dasharray:none;stroke-opacity:1"
         id="path4178"
         inkscape:connector-curvature="0" /><path
         d="m 1612.8,3888 0,-40"
         style="fill:#000000;fill-opacity:1;fill-rule:nonzero;stroke:none"
         id="path4180"
         inkscape:connector-curvature="0" /><path
         d="m 1612.8,3888 0,-40"
         style="fill:none;stroke:#000000;stroke-width:5;stroke-linecap:butt;stroke-linejoin:round;stroke-miterlimit:10;stroke-dasharray:none;stroke-opacity:1"
         id="path4182"
         inkscape:connector-curvature="0" /><g
         id="g4184"
         transform="scale(10,10)"><text
           transform="matrix(1,0,0,-1,152.507,30.075)"
           style="font-variant:normal;font-weight:normal;font-size:12px;font-family:Arial;-inkscape-font-specification:Arial;writing-mode:lr-tb;fill:#000000;fill-opacity:1;fill-rule:nonzero;stroke:none"
           id="text4186"><tspan
             x="0 7.6289115 11.994141"
             y="0"
             sodipodi:role="line"
             id="tspan4188">0.1</tspan></text>
</g><path
         d="m 2505.6,432 0,40"
         style="fill:#000000;fill-opacity:1;fill-rule:nonzero;stroke:none"
         id="path4190"
         inkscape:connector-curvature="0" /><path
         d="m 2505.6,432 0,40"
         style="fill:none;stroke:#000000;stroke-width:5;stroke-linecap:butt;stroke-linejoin:round;stroke-miterlimit:10;stroke-dasharray:none;stroke-opacity:1"
         id="path4192"
         inkscape:connector-curvature="0" /><path
         d="m 2505.6,3888 0,-40"
         style="fill:#000000;fill-opacity:1;fill-rule:nonzero;stroke:none"
         id="path4194"
         inkscape:connector-curvature="0" /><path
         d="m 2505.6,3888 0,-40"
         style="fill:none;stroke:#000000;stroke-width:5;stroke-linecap:butt;stroke-linejoin:round;stroke-miterlimit:10;stroke-dasharray:none;stroke-opacity:1"
         id="path4196"
         inkscape:connector-curvature="0" /><g
         id="g4198"
         transform="scale(10,10)"><text
           transform="matrix(1,0,0,-1,241.545,30.075)"
           style="font-variant:normal;font-weight:normal;font-size:12px;font-family:Arial;-inkscape-font-specification:Arial;writing-mode:lr-tb;fill:#000000;fill-opacity:1;fill-rule:nonzero;stroke:none"
           id="text4200"><tspan
             x="0 7.6288996 11.994141"
             y="0"
             sodipodi:role="line"
             id="tspan4202">0.2</tspan></text>
</g><path
         d="m 3398.4,432 0,40"
         style="fill:#000000;fill-opacity:1;fill-rule:nonzero;stroke:none"
         id="path4204"
         inkscape:connector-curvature="0" /><path
         d="m 3398.4,432 0,40"
         style="fill:none;stroke:#000000;stroke-width:5;stroke-linecap:butt;stroke-linejoin:round;stroke-miterlimit:10;stroke-dasharray:none;stroke-opacity:1"
         id="path4206"
         inkscape:connector-curvature="0" /><path
         d="m 3398.4,3888 0,-40"
         style="fill:#000000;fill-opacity:1;fill-rule:nonzero;stroke:none"
         id="path4208"
         inkscape:connector-curvature="0" /><path
         d="m 3398.4,3888 0,-40"
         style="fill:none;stroke:#000000;stroke-width:5;stroke-linecap:butt;stroke-linejoin:round;stroke-miterlimit:10;stroke-dasharray:none;stroke-opacity:1"
         id="path4210"
         inkscape:connector-curvature="0" /><g
         id="g4212"
         transform="scale(10,10)"><text
           transform="matrix(1,0,0,-1,330.879,30.075)"
           style="font-variant:normal;font-weight:normal;font-size:12px;font-family:Arial;-inkscape-font-specification:Arial;writing-mode:lr-tb;fill:#000000;fill-opacity:1;fill-rule:nonzero;stroke:none"
           id="text4214"><tspan
             x="0 7.6288996 11.994141"
             y="0"
             sodipodi:role="line"
             id="tspan4216">0.3</tspan></text>
</g><path
         d="m 4291.2,432 0,40"
         style="fill:#000000;fill-opacity:1;fill-rule:nonzero;stroke:none"
         id="path4218"
         inkscape:connector-curvature="0" /><path
         d="m 4291.2,432 0,40"
         style="fill:none;stroke:#000000;stroke-width:5;stroke-linecap:butt;stroke-linejoin:round;stroke-miterlimit:10;stroke-dasharray:none;stroke-opacity:1"
         id="path4220"
         inkscape:connector-curvature="0" /><path
         d="m 4291.2,3888 0,-40"
         style="fill:#000000;fill-opacity:1;fill-rule:nonzero;stroke:none"
         id="path4222"
         inkscape:connector-curvature="0" /><path
         d="m 4291.2,3888 0,-40"
         style="fill:none;stroke:#000000;stroke-width:5;stroke-linecap:butt;stroke-linejoin:round;stroke-miterlimit:10;stroke-dasharray:none;stroke-opacity:1"
         id="path4224"
         inkscape:connector-curvature="0" /><g
         id="g4226"
         transform="scale(10,10)"><text
           transform="matrix(1,0,0,-1,420.003,30.075)"
           style="font-variant:normal;font-weight:normal;font-size:12px;font-family:Arial;-inkscape-font-specification:Arial;writing-mode:lr-tb;fill:#000000;fill-opacity:1;fill-rule:nonzero;stroke:none"
           id="text4228"><tspan
             x="0 7.6289239 11.994141"
             y="0"
             sodipodi:role="line"
             id="tspan4230">0.4</tspan></text>
</g><path
         d="m 5184,432 0,40"
         style="fill:#000000;fill-opacity:1;fill-rule:nonzero;stroke:none"
         id="path4232"
         inkscape:connector-curvature="0" /><path
         d="m 5184,432 0,40"
         style="fill:none;stroke:#000000;stroke-width:5;stroke-linecap:butt;stroke-linejoin:round;stroke-miterlimit:10;stroke-dasharray:none;stroke-opacity:1"
         id="path4234"
         inkscape:connector-curvature="0" /><path
         d="m 5184,3888 0,-40"
         style="fill:#000000;fill-opacity:1;fill-rule:nonzero;stroke:none"
         id="path4236"
         inkscape:connector-curvature="0" /><path
         d="m 5184,3888 0,-40"
         style="fill:none;stroke:#000000;stroke-width:5;stroke-linecap:butt;stroke-linejoin:round;stroke-miterlimit:10;stroke-dasharray:none;stroke-opacity:1"
         id="path4238"
         inkscape:connector-curvature="0" /><g
         id="g4240"
         transform="scale(10,10)"><text
           transform="matrix(1,0,0,-1,509.416,30.075)"
           style="font-variant:normal;font-weight:normal;font-size:12px;font-family:Arial;-inkscape-font-specification:Arial;writing-mode:lr-tb;fill:#000000;fill-opacity:1;fill-rule:nonzero;stroke:none"
           id="text4242"><tspan
             x="0 7.6289239 11.994141"
             y="0"
             sodipodi:role="line"
             id="tspan4244">0.5</tspan><tspan
             x="-281.31699 -272.34042 -265.05725 -259.93616 -248.26428 -241.05725 -237.76428 -234.4713 -228.2193 -221.07086 -213.5943 -209.37555 -204.32477 -196.73102 -189.25446 -181.66071 -176.93219 -172.71344 -165.81696 -160.69586 -153.54742"
             y="16.5469"
             sodipodi:role="line"
             id="tspan4246">Normalised Input Freq</tspan></text>
</g><path
         d="m 720,432 40,0"
         style="fill:#000000;fill-opacity:1;fill-rule:nonzero;stroke:none"
         id="path4248"
         inkscape:connector-curvature="0" /><path
         d="m 720,432 40,0"
         style="fill:none;stroke:#000000;stroke-width:5;stroke-linecap:butt;stroke-linejoin:round;stroke-miterlimit:10;stroke-dasharray:none;stroke-opacity:1"
         id="path4250"
         inkscape:connector-curvature="0" /><path
         d="m 5184,432 -40,0"
         style="fill:#000000;fill-opacity:1;fill-rule:nonzero;stroke:none"
         id="path4252"
         inkscape:connector-curvature="0" /><path
         d="m 5184,432 -40,0"
         style="fill:none;stroke:#000000;stroke-width:5;stroke-linecap:butt;stroke-linejoin:round;stroke-miterlimit:10;stroke-dasharray:none;stroke-opacity:1"
         id="path4254"
         inkscape:connector-curvature="0" /><g
         id="g4256"
         transform="scale(10,10)"><text
           transform="matrix(1,0,0,-1,37.375,39.8484)"
           style="font-variant:normal;font-weight:normal;font-size:12px;font-family:Arial;-inkscape-font-specification:Arial;writing-mode:lr-tb;fill:#000000;fill-opacity:1;fill-rule:nonzero;stroke:none"
           id="text4258"><tspan
             x="0 9.8203125 17.449217 25.078123"
             y="0"
             sodipodi:role="line"
             id="tspan4260">−140</tspan></text>
</g><path
         d="m 720,864 40,0"
         style="fill:#000000;fill-opacity:1;fill-rule:nonzero;stroke:none"
         id="path4262"
         inkscape:connector-curvature="0" /><path
         d="m 720,864 40,0"
         style="fill:none;stroke:#000000;stroke-width:5;stroke-linecap:butt;stroke-linejoin:round;stroke-miterlimit:10;stroke-dasharray:none;stroke-opacity:1"
         id="path4264"
         inkscape:connector-curvature="0" /><path
         d="m 5184,864 -40,0"
         style="fill:#000000;fill-opacity:1;fill-rule:nonzero;stroke:none"
         id="path4266"
         inkscape:connector-curvature="0" /><path
         d="m 5184,864 -40,0"
         style="fill:none;stroke:#000000;stroke-width:5;stroke-linecap:butt;stroke-linejoin:round;stroke-miterlimit:10;stroke-dasharray:none;stroke-opacity:1"
         id="path4268"
         inkscape:connector-curvature="0" /><g
         id="g4270"
         transform="scale(10,10)"><text
           transform="matrix(1,0,0,-1,37.375,83.0484)"
           style="font-variant:normal;font-weight:normal;font-size:12px;font-family:Arial;-inkscape-font-specification:Arial;writing-mode:lr-tb;fill:#000000;fill-opacity:1;fill-rule:nonzero;stroke:none"
           id="text4272"><tspan
             x="0 9.8203125 17.449217 25.078123"
             y="0"
             sodipodi:role="line"
             id="tspan4274">−120</tspan></text>
</g><path
         d="m 720,1296 40,0"
         style="fill:#000000;fill-opacity:1;fill-rule:nonzero;stroke:none"
         id="path4276"
         inkscape:connector-curvature="0" /><path
         d="m 720,1296 40,0"
         style="fill:none;stroke:#000000;stroke-width:5;stroke-linecap:butt;stroke-linejoin:round;stroke-miterlimit:10;stroke-dasharray:none;stroke-opacity:1"
         id="path4278"
         inkscape:connector-curvature="0" /><path
         d="m 5184,1296 -40,0"
         style="fill:#000000;fill-opacity:1;fill-rule:nonzero;stroke:none"
         id="path4280"
         inkscape:connector-curvature="0" /><path
         d="m 5184,1296 -40,0"
         style="fill:none;stroke:#000000;stroke-width:5;stroke-linecap:butt;stroke-linejoin:round;stroke-miterlimit:10;stroke-dasharray:none;stroke-opacity:1"
         id="path4282"
         inkscape:connector-curvature="0" /><g
         id="g4284"
         transform="scale(10,10)"><text
           transform="matrix(1,0,0,-1,37.375,126.248)"
           style="font-variant:normal;font-weight:normal;font-size:12px;font-family:Arial;-inkscape-font-specification:Arial;writing-mode:lr-tb;fill:#000000;fill-opacity:1;fill-rule:nonzero;stroke:none"
           id="text4286"><tspan
             x="0 9.8203125 17.449217 25.078123"
             y="0"
             sodipodi:role="line"
             id="tspan4288">−100</tspan></text>
</g><path
         d="m 720,1728 40,0"
         style="fill:#000000;fill-opacity:1;fill-rule:nonzero;stroke:none"
         id="path4290"
         inkscape:connector-curvature="0" /><path
         d="m 720,1728 40,0"
         style="fill:none;stroke:#000000;stroke-width:5;stroke-linecap:butt;stroke-linejoin:round;stroke-miterlimit:10;stroke-dasharray:none;stroke-opacity:1"
         id="path4292"
         inkscape:connector-curvature="0" /><path
         d="m 5184,1728 -40,0"
         style="fill:#000000;fill-opacity:1;fill-rule:nonzero;stroke:none"
         id="path4294"
         inkscape:connector-curvature="0" /><path
         d="m 5184,1728 -40,0"
         style="fill:none;stroke:#000000;stroke-width:5;stroke-linecap:butt;stroke-linejoin:round;stroke-miterlimit:10;stroke-dasharray:none;stroke-opacity:1"
         id="path4296"
         inkscape:connector-curvature="0" /><g
         id="g4298"
         transform="scale(10,10)"><text
           transform="matrix(1,0,0,-1,45,169.448)"
           style="font-variant:normal;font-weight:normal;font-size:12px;font-family:Arial;-inkscape-font-specification:Arial;writing-mode:lr-tb;fill:#000000;fill-opacity:1;fill-rule:nonzero;stroke:none"
           id="text4300"><tspan
             x="0 9.8203154 17.449221"
             y="0"
             sodipodi:role="line"
             id="tspan4302">−80</tspan></text>
</g><path
         d="m 720,2160 40,0"
         style="fill:#000000;fill-opacity:1;fill-rule:nonzero;stroke:none"
         id="path4304"
         inkscape:connector-curvature="0" /><path
         d="m 720,2160 40,0"
         style="fill:none;stroke:#000000;stroke-width:5;stroke-linecap:butt;stroke-linejoin:round;stroke-miterlimit:10;stroke-dasharray:none;stroke-opacity:1"
         id="path4306"
         inkscape:connector-curvature="0" /><path
         d="m 5184,2160 -40,0"
         style="fill:#000000;fill-opacity:1;fill-rule:nonzero;stroke:none"
         id="path4308"
         inkscape:connector-curvature="0" /><path
         d="m 5184,2160 -40,0"
         style="fill:none;stroke:#000000;stroke-width:5;stroke-linecap:butt;stroke-linejoin:round;stroke-miterlimit:10;stroke-dasharray:none;stroke-opacity:1"
         id="path4310"
         inkscape:connector-curvature="0" /><g
         id="g4312"
         transform="scale(10,10)"><text
           transform="matrix(1,0,0,-1,45,212.648)"
           style="font-variant:normal;font-weight:normal;font-size:12px;font-family:Arial;-inkscape-font-specification:Arial;writing-mode:lr-tb;fill:#000000;fill-opacity:1;fill-rule:nonzero;stroke:none"
           id="text4314"><tspan
             x="0 9.8203154 17.449221"
             y="0"
             sodipodi:role="line"
             id="tspan4316">−60</tspan></text>
</g><path
         d="m 720,2592 40,0"
         style="fill:#000000;fill-opacity:1;fill-rule:nonzero;stroke:none"
         id="path4318"
         inkscape:connector-curvature="0" /><path
         d="m 720,2592 40,0"
         style="fill:none;stroke:#000000;stroke-width:5;stroke-linecap:butt;stroke-linejoin:round;stroke-miterlimit:10;stroke-dasharray:none;stroke-opacity:1"
         id="path4320"
         inkscape:connector-curvature="0" /><path
         d="m 5184,2592 -40,0"
         style="fill:#000000;fill-opacity:1;fill-rule:nonzero;stroke:none"
         id="path4322"
         inkscape:connector-curvature="0" /><path
         d="m 5184,2592 -40,0"
         style="fill:none;stroke:#000000;stroke-width:5;stroke-linecap:butt;stroke-linejoin:round;stroke-miterlimit:10;stroke-dasharray:none;stroke-opacity:1"
         id="path4324"
         inkscape:connector-curvature="0" /><g
         id="g4326"
         transform="scale(10,10)"><text
           transform="matrix(1,0,0,-1,45,255.848)"
           style="font-variant:normal;font-weight:normal;font-size:12px;font-family:Arial;-inkscape-font-specification:Arial;writing-mode:lr-tb;fill:#000000;fill-opacity:1;fill-rule:nonzero;stroke:none"
           id="text4328"><tspan
             x="0 9.8203154 17.449221"
             y="0"
             sodipodi:role="line"
             id="tspan4330">−40</tspan></text>
</g><path
         d="m 720,3024 40,0"
         style="fill:#000000;fill-opacity:1;fill-rule:nonzero;stroke:none"
         id="path4332"
         inkscape:connector-curvature="0" /><path
         d="m 720,3024 40,0"
         style="fill:none;stroke:#000000;stroke-width:5;stroke-linecap:butt;stroke-linejoin:round;stroke-miterlimit:10;stroke-dasharray:none;stroke-opacity:1"
         id="path4334"
         inkscape:connector-curvature="0" /><path
         d="m 5184,3024 -40,0"
         style="fill:#000000;fill-opacity:1;fill-rule:nonzero;stroke:none"
         id="path4336"
         inkscape:connector-curvature="0" /><path
         d="m 5184,3024 -40,0"
         style="fill:none;stroke:#000000;stroke-width:5;stroke-linecap:butt;stroke-linejoin:round;stroke-miterlimit:10;stroke-dasharray:none;stroke-opacity:1"
         id="path4338"
         inkscape:connector-curvature="0" /><g
         id="g4340"
         transform="scale(10,10)"><text
           transform="matrix(1,0,0,-1,45,299.048)"
           style="font-variant:normal;font-weight:normal;font-size:12px;font-family:Arial;-inkscape-font-specification:Arial;writing-mode:lr-tb;fill:#000000;fill-opacity:1;fill-rule:nonzero;stroke:none"
           id="text4342"><tspan
             x="0 9.8203154 17.449221"
             y="0"
             sodipodi:role="line"
             id="tspan4344">−20</tspan></text>
</g><path
         d="m 720,3456 40,0"
         style="fill:#000000;fill-opacity:1;fill-rule:nonzero;stroke:none"
         id="path4346"
         inkscape:connector-curvature="0" /><path
         d="m 720,3456 40,0"
         style="fill:none;stroke:#000000;stroke-width:5;stroke-linecap:butt;stroke-linejoin:round;stroke-miterlimit:10;stroke-dasharray:none;stroke-opacity:1"
         id="path4348"
         inkscape:connector-curvature="0" /><path
         d="m 5184,3456 -40,0"
         style="fill:#000000;fill-opacity:1;fill-rule:nonzero;stroke:none"
         id="path4350"
         inkscape:connector-curvature="0" /><path
         d="m 5184,3456 -40,0"
         style="fill:none;stroke:#000000;stroke-width:5;stroke-linecap:butt;stroke-linejoin:round;stroke-miterlimit:10;stroke-dasharray:none;stroke-opacity:1"
         id="path4352"
         inkscape:connector-curvature="0" /><g
         id="g4354"
         transform="scale(10,10)"><text
           transform="matrix(1,0,0,-1,61.9531,342.248)"
           style="font-variant:normal;font-weight:normal;font-size:12px;font-family:Arial;-inkscape-font-specification:Arial;writing-mode:lr-tb;fill:#000000;fill-opacity:1;fill-rule:nonzero;stroke:none"
           id="text4356"><tspan
             x="0"
             y="0"
             id="tspan4358">0</tspan></text>
</g><path
         d="m 720,3888 40,0"
         style="fill:#000000;fill-opacity:1;fill-rule:nonzero;stroke:none"
         id="path4360"
         inkscape:connector-curvature="0" /><path
         d="m 720,3888 40,0"
         style="fill:none;stroke:#000000;stroke-width:5;stroke-linecap:butt;stroke-linejoin:round;stroke-miterlimit:10;stroke-dasharray:none;stroke-opacity:1"
         id="path4362"
         inkscape:connector-curvature="0" /><path
         d="m 5184,3888 -40,0"
         style="fill:#000000;fill-opacity:1;fill-rule:nonzero;stroke:none"
         id="path4364"
         inkscape:connector-curvature="0" /><path
         d="m 5184,3888 -40,0"
         style="fill:none;stroke:#000000;stroke-width:5;stroke-linecap:butt;stroke-linejoin:round;stroke-miterlimit:10;stroke-dasharray:none;stroke-opacity:1"
         id="path4366"
         inkscape:connector-curvature="0" /><g
         id="g4368"
         transform="scale(10,10)"><text
           transform="matrix(1,0,0,-1,54.4688,385.448)"
           style="font-variant:normal;font-weight:normal;font-size:12px;font-family:Arial;-inkscape-font-specification:Arial;writing-mode:lr-tb;fill:#000000;fill-opacity:1;fill-rule:nonzero;stroke:none"
           id="text4370"><tspan
             x="0 7.6289053"
             y="0"
             sodipodi:role="line"
             id="tspan4372">20</tspan></text>
<text
           transform="matrix(0,1,1,0,29.8906,154.227)"
           style="font-variant:normal;font-weight:normal;font-size:12px;font-family:Arial;-inkscape-font-specification:Arial;writing-mode:lr-tb;fill:#000000;fill-opacity:1;fill-rule:nonzero;stroke:none"
           id="text4374"><tspan
             x="0 10.113277 17.320309 24.796871 32.390625 35.683594 40.412106 48.005859 55.482422 62.630856 66.849609 74.943367 82.091805 88.343803 95.820366 103.10356 110.69731 116.94931"
             y="0"
             sodipodi:role="line"
             id="tspan4376">Magnitude Response</tspan></text>
</g><path
         d="m 720,3888 4464,0"
         style="fill:none;stroke:#000000;stroke-width:10;stroke-linecap:butt;stroke-linejoin:round;stroke-miterlimit:10;stroke-dasharray:none;stroke-opacity:1"
         id="path4378"
         inkscape:connector-curvature="0" /><path
         d="m 5184,432 0,3456"
         style="fill:none;stroke:#000000;stroke-width:10;stroke-linecap:butt;stroke-linejoin:round;stroke-miterlimit:10;stroke-dasharray:none;stroke-opacity:1"
         id="path4380"
         inkscape:connector-curvature="0" /><path
         d="m 720,432 4464,0"
         style="fill:none;stroke:#000000;stroke-width:10;stroke-linecap:butt;stroke-linejoin:round;stroke-miterlimit:10;stroke-dasharray:none;stroke-opacity:1"
         id="path4382"
         inkscape:connector-curvature="0" /><path
         d="m 720,432 0,3456"
         style="fill:none;stroke:#000000;stroke-width:10;stroke-linecap:butt;stroke-linejoin:round;stroke-miterlimit:10;stroke-dasharray:none;stroke-opacity:1"
         id="path4384"
         inkscape:connector-curvature="0" /></g><path
       style="fill:none;fill-rule:evenodd;stroke:#000000;stroke-width:0.85721451;stroke-linecap:butt;stroke-linejoin:miter;stroke-miterlimit:4;stroke-dasharray:none;stroke-opacity:1"
       d="m 185.09753,43.718347 0,344.940953"
       id="path4386"
       inkscape:connector-curvature="0" /><rect
       style="fill:#ff0000;fill-opacity:0.48520711;stroke:none;stroke-width:0.85119998;stroke-miterlimit:4;stroke-dasharray:none;stroke-opacity:1"
       id="rect4409"
       width="23.779976"
       height="344.87103"
       x="160.89047"
       y="-388.58682"
       transform="scale(1,-1)" /><rect
       style="fill:#ff0000;fill-opacity:0.48520711;stroke:none;stroke-width:0.85119998;stroke-miterlimit:4;stroke-dasharray:none;stroke-opacity:1"
       id="rect4409-7"
       width="24.138931"
       height="344.87103"
       x="185.32477"
       y="-388.43552"
       transform="scale(1,-1)" /><path
       style="fill:none;fill-rule:evenodd;stroke:#000000;stroke-width:0.85721457;stroke-linecap:butt;stroke-linejoin:miter;stroke-miterlimit:4;stroke-dasharray:none;stroke-opacity:1"
       d="m 297.85253,43.696964 0,344.940946"
       id="path4386-8"
       inkscape:connector-curvature="0" /><rect
       style="fill:#ff0000;fill-opacity:0.48520711;stroke:none;stroke-width:0.85119998;stroke-miterlimit:4;stroke-dasharray:none;stroke-opacity:1"
       id="rect4409-9"
       width="23.779976"
       height="344.87103"
       x="273.64545"
       y="-388.56543"
       transform="scale(1,-1)" /><rect
       style="fill:#ff0000;fill-opacity:0.48520711;stroke:none;stroke-width:0.85119998;stroke-miterlimit:4;stroke-dasharray:none;stroke-opacity:1"
       id="rect4409-7-4"
       width="24.138931"
       height="344.87103"
       x="298.07974"
       y="-388.41412"
       transform="scale(1,-1)" /><path
       style="fill:none;fill-rule:evenodd;stroke:#000000;stroke-width:0.85721457;stroke-linecap:butt;stroke-linejoin:miter;stroke-miterlimit:4;stroke-dasharray:none;stroke-opacity:1"
       d="m 406.97465,44.414869 0,344.940951"
       id="path4386-88"
       inkscape:connector-curvature="0" /><rect
       style="fill:#ff0000;fill-opacity:0.48520711;stroke:none;stroke-width:0.85119998;stroke-miterlimit:4;stroke-dasharray:none;stroke-opacity:1"
       id="rect4409-3"
       width="23.779976"
       height="344.87103"
       x="382.76758"
       y="-389.28333"
       transform="scale(1,-1)" /><rect
       style="fill:#ff0000;fill-opacity:0.48520711;stroke:none;stroke-width:0.85119998;stroke-miterlimit:4;stroke-dasharray:none;stroke-opacity:1"
       id="rect4409-7-6"
       width="24.138931"
       height="344.87103"
       x="407.20187"
       y="-389.13202"
       transform="scale(1,-1)" /><path
       style="fill:none;fill-rule:evenodd;stroke:#000000;stroke-width:0.85721457;stroke-linecap:butt;stroke-linejoin:miter;stroke-miterlimit:4;stroke-dasharray:none;stroke-opacity:1"
       d="m 518.25049,43.69696 0,344.94095"
       id="path4386-5"
       inkscape:connector-curvature="0" /><rect
       style="fill:#ff0000;fill-opacity:0.48520711;stroke:none;stroke-width:0.85119998;stroke-miterlimit:4;stroke-dasharray:none;stroke-opacity:1"
       id="rect4409-6"
       width="23.779976"
       height="344.87103"
       x="494.04343"
       y="-388.56543"
       transform="scale(1,-1)" /><rect
       style="fill:#00ff00;fill-opacity:0.48520711;stroke:none;stroke-width:0.85119998;stroke-miterlimit:4;stroke-dasharray:none;stroke-opacity:1"
       id="rect4409-5"
       width="18.195957"
       height="344.87103"
       x="71.362656"
       y="-389.19696"
       transform="scale(1,-1)" /><text
       xml:space="preserve"
       style="font-style:normal;font-weight:normal;font-size:14px;line-height:127.99999714%;font-family:Sans;letter-spacing:0px;word-spacing:0px;fill:#000000;fill-opacity:1;stroke:none;stroke-width:1px;stroke-linecap:butt;stroke-linejoin:miter;stroke-opacity:1"
       x="-309.20267"
       y="-74.82225"
       id="text4482"
       sodipodi:linespacing="128%"
       transform="matrix(-0.00133246,-0.99999911,-0.99999911,0.00133246,0,0)"><tspan
         sodipodi:role="line"
         x="-309.20267"
         y="-74.82225"
         id="tspan4486"><tspan
           style="font-size:14px"
           id="tspan4490"><tspan
   style="font-size:14px"
   id="tspan4492">Passban</tspan>d</tspan></tspan></text>
<text
       xml:space="preserve"
       style="font-style:normal;font-weight:normal;font-size:12px;line-height:125%;font-family:Sans;letter-spacing:0px;word-spacing:0px;fill:#000000;fill-opacity:1;stroke:none;stroke-width:1px;stroke-linecap:butt;stroke-linejoin:miter;stroke-opacity:1"
       x="-310.02554"
       y="-168.08568"
       id="text4494"
       sodipodi:linespacing="125%"
       transform="matrix(0,-1,-1,0,0,0)"><tspan
         sodipodi:role="line"
         id="tspan4496"
         x="-310.02554"
         y="-168.08568"
         style="font-size:14px">Stopband</tspan></text>
<text
       xml:space="preserve"
       style="font-style:normal;font-weight:normal;font-size:12px;line-height:125%;font-family:Sans;letter-spacing:0px;word-spacing:0px;fill:#000000;fill-opacity:1;stroke:none;stroke-width:1px;stroke-linecap:butt;stroke-linejoin:miter;stroke-opacity:1"
       x="-310.02554"
       y="-195.13182"
       id="text4494-8"
       sodipodi:linespacing="125%"
       transform="matrix(0,-1,-1,0,0,0)"><tspan
         sodipodi:role="line"
         id="tspan4496-0"
         x="-310.02554"
         y="-195.13182"
         style="font-size:14px">Stopband</tspan></text>
<text
       xml:space="preserve"
       style="font-style:normal;font-weight:normal;font-size:12px;line-height:125%;font-family:Sans;letter-spacing:0px;word-spacing:0px;fill:#000000;fill-opacity:1;stroke:none;stroke-width:1px;stroke-linecap:butt;stroke-linejoin:miter;stroke-opacity:1"
       x="-310.02554"
       y="-282.44556"
       id="text4494-7"
       sodipodi:linespacing="125%"
       transform="matrix(0,-1,-1,0,0,0)"><tspan
         sodipodi:role="line"
         id="tspan4496-3"
         x="-310.02554"
         y="-282.44556"
         style="font-size:14px">Stopband</tspan></text>
<text
       xml:space="preserve"
       style="font-style:normal;font-weight:normal;font-size:12px;line-height:125%;font-family:Sans;letter-spacing:0px;word-spacing:0px;fill:#000000;fill-opacity:1;stroke:none;stroke-width:1px;stroke-linecap:butt;stroke-linejoin:miter;stroke-opacity:1"
       x="-310.02554"
       y="-306.30457"
       id="text4494-79"
       sodipodi:linespacing="125%"
       transform="matrix(0,-1,-1,0,0,0)"><tspan
         sodipodi:role="line"
         id="tspan4496-2"
         x="-310.02554"
         y="-306.30457"
         style="font-size:14px">Stopband</tspan></text>
<text
       xml:space="preserve"
       style="font-style:normal;font-weight:normal;font-size:12px;line-height:125%;font-family:Sans;letter-spacing:0px;word-spacing:0px;fill:#000000;fill-opacity:1;stroke:none;stroke-width:1px;stroke-linecap:butt;stroke-linejoin:miter;stroke-opacity:1"
       x="-310.02554"
       y="-388.54193"
       id="text4494-5"
       sodipodi:linespacing="125%"
       transform="matrix(0,-1,-1,0,0,0)"><tspan
         sodipodi:role="line"
         id="tspan4496-6"
         x="-310.02554"
         y="-388.54193"
         style="font-size:14px">Stopband</tspan></text>
<text
       xml:space="preserve"
       style="font-style:normal;font-weight:normal;font-size:12px;line-height:125%;font-family:Sans;letter-spacing:0px;word-spacing:0px;fill:#000000;fill-opacity:1;stroke:none;stroke-width:1px;stroke-linecap:butt;stroke-linejoin:miter;stroke-opacity:1"
       x="-310.02554"
       y="-413.4162"
       id="text4494-89"
       sodipodi:linespacing="125%"
       transform="matrix(0,-1,-1,0,0,0)"><tspan
         sodipodi:role="line"
         id="tspan4496-23"
         x="-310.02554"
         y="-413.4162"
         style="font-size:14px">Stopband</tspan></text>
<text
       xml:space="preserve"
       style="font-style:normal;font-weight:normal;font-size:12px;line-height:125%;font-family:Sans;letter-spacing:0px;word-spacing:0px;fill:#000000;fill-opacity:1;stroke:none;stroke-width:1px;stroke-linecap:butt;stroke-linejoin:miter;stroke-opacity:1"
       x="-310.02554"
       y="-502.7605"
       id="text4494-1"
       sodipodi:linespacing="125%"
       transform="matrix(0,-1,-1,0,0,0)"><tspan
         sodipodi:role="line"
         id="tspan4496-9"
         x="-310.02554"
         y="-502.7605"
         style="font-size:14px">Stopband</tspan></text>
<path
       style="fill:none;fill-rule:evenodd;stroke:#000000;stroke-width:0.75225627px;stroke-linecap:butt;stroke-linejoin:miter;stroke-opacity:1;marker-start:url(#Arrow2Lstart);marker-end:url(#Arrow2Lend)"
       d="m 186.65595,356.23501 21.3767,0"
       id="path4820"
       inkscape:connector-curvature="0" /><path
       style="fill:none;fill-rule:evenodd;stroke:#000000;stroke-width:0.64088041px;stroke-linecap:butt;stroke-linejoin:miter;stroke-opacity:1;marker-start:url(#Arrow2Lstart-6);marker-end:url(#Arrow2Lend-4)"
       d="m 72.962152,356.27179 15.515405,0"
       id="path4820-7"
       inkscape:connector-curvature="0" /><text
       xml:space="preserve"
       style="font-style:normal;font-weight:normal;font-size:14px;line-height:125%;font-family:Sans;letter-spacing:0px;word-spacing:0px;fill:#000000;fill-opacity:1;stroke:none;stroke-width:1px;stroke-linecap:butt;stroke-linejoin:miter;stroke-opacity:1"
       x="188.31383"
       y="-365.25974"
       id="text4853"
       sodipodi:linespacing="125%"
       transform="scale(1,-1)"><tspan
         sodipodi:role="line"
         x="188.31383"
         y="-365.25974"
         id="tspan4857">Bandwidth</tspan></text>
<text
       xml:space="preserve"
       style="font-style:normal;font-weight:normal;font-size:14px;line-height:125%;font-family:Sans;letter-spacing:0px;word-spacing:0px;fill:#000000;fill-opacity:1;stroke:none;stroke-width:1px;stroke-linecap:butt;stroke-linejoin:miter;stroke-opacity:1"
       x="73.804085"
       y="-365.35657"
       id="text4853-3"
       sodipodi:linespacing="125%"
       transform="scale(1,-1)"><tspan
         sodipodi:role="line"
         x="73.804085"
         y="-365.35657"
         id="tspan4857-1">Bandwidth</tspan></text>
</g></svg>