<?xml version="1.0" encoding="UTF-8" standalone="no"?>
<!-- Created with Inkscape (http://www.inkscape.org/) -->

<svg
   xmlns:dc="http://purl.org/dc/elements/1.1/"
   xmlns:cc="http://creativecommons.org/ns#"
   xmlns:rdf="http://www.w3.org/1999/02/22-rdf-syntax-ns#"
   xmlns:svg="http://www.w3.org/2000/svg"
   xmlns="http://www.w3.org/2000/svg"
   xmlns:sodipodi="http://sodipodi.sourceforge.net/DTD/sodipodi-0.dtd"
   xmlns:inkscape="http://www.inkscape.org/namespaces/inkscape"
   id="svg4321"
   version="1.1"
   inkscape:version="0.91 r13725"
   xml:space="preserve"
   width="720"
   height="540"
   viewBox="0 0 720 540"
   sodipodi:docname="second_stage_diagram.svg"><metadata
     id="metadata4327"><rdf:RDF><cc:Work
         rdf:about=""><dc:format>image/svg+xml</dc:format><dc:type
           rdf:resource="http://purl.org/dc/dcmitype/StillImage" /><dc:title></dc:title></cc:Work></rdf:RDF></metadata><defs
     id="defs4325"><clipPath
       clipPathUnits="userSpaceOnUse"
       id="clipPath4341"><path
         d="m 720,432 4464,0 0,3456 -4464,0 0,-3456 z"
         id="path4343"
         inkscape:connector-curvature="0" /></clipPath><marker
       inkscape:stockid="Arrow2Lstart"
       orient="auto"
       refY="0"
       refX="0"
       id="Arrow2Lstart-6"
       style="overflow:visible"
       inkscape:isstock="true"><path
         inkscape:connector-curvature="0"
         id="path4580-9"
         style="fill:#000000;fill-opacity:1;fill-rule:evenodd;stroke:#000000;stroke-width:0.625;stroke-linejoin:round;stroke-opacity:1"
         d="M 8.7185878,4.0337352 -2.2072895,0.01601326 8.7185884,-4.0017078 c -1.7454984,2.3720609 -1.7354408,5.6174519 -6e-7,8.035443 z"
         transform="matrix(1.1,0,0,1.1,1.1,0)" /></marker><marker
       inkscape:stockid="Arrow2Lend"
       orient="auto"
       refY="0"
       refX="0"
       id="Arrow2Lend-4"
       style="overflow:visible"
       inkscape:isstock="true"><path
         inkscape:connector-curvature="0"
         id="path4583-3"
         style="fill:#000000;fill-opacity:1;fill-rule:evenodd;stroke:#000000;stroke-width:0.625;stroke-linejoin:round;stroke-opacity:1"
         d="M 8.7185878,4.0337352 -2.2072895,0.01601326 8.7185884,-4.0017078 c -1.7454984,2.3720609 -1.7354408,5.6174519 -6e-7,8.035443 z"
         transform="matrix(-1.1,0,0,-1.1,-1.1,0)" /></marker><marker
       inkscape:stockid="Arrow2Lstart"
       orient="auto"
       refY="0"
       refX="0"
       id="Arrow2Lstart-6-7"
       style="overflow:visible"
       inkscape:isstock="true"><path
         inkscape:connector-curvature="0"
         id="path4580-9-4"
         style="fill:#000000;fill-opacity:1;fill-rule:evenodd;stroke:#000000;stroke-width:0.625;stroke-linejoin:round;stroke-opacity:1"
         d="M 8.7185878,4.0337352 -2.2072895,0.01601326 8.7185884,-4.0017078 c -1.7454984,2.3720609 -1.7354408,5.6174519 -6e-7,8.035443 z"
         transform="matrix(1.1,0,0,1.1,1.1,0)" /></marker><marker
       inkscape:stockid="Arrow2Lend"
       orient="auto"
       refY="0"
       refX="0"
       id="Arrow2Lend-4-0"
       style="overflow:visible"
       inkscape:isstock="true"><path
         inkscape:connector-curvature="0"
         id="path4583-3-7"
         style="fill:#000000;fill-opacity:1;fill-rule:evenodd;stroke:#000000;stroke-width:0.625;stroke-linejoin:round;stroke-opacity:1"
         d="M 8.7185878,4.0337352 -2.2072895,0.01601326 8.7185884,-4.0017078 c -1.7454984,2.3720609 -1.7354408,5.6174519 -6e-7,8.035443 z"
         transform="matrix(-1.1,0,0,-1.1,-1.1,0)" /></marker></defs><sodipodi:namedview
     pagecolor="#ffffff"
     bordercolor="#666666"
     borderopacity="1"
     objecttolerance="10"
     gridtolerance="10"
     guidetolerance="10"
     inkscape:pageopacity="0"
     inkscape:pageshadow="2"
     inkscape:window-width="1920"
     inkscape:window-height="1018"
     id="namedview4323"
     showgrid="false"
     inkscape:zoom="1.2361274"
     inkscape:cx="563.45047"
     inkscape:cy="338.99136"
     inkscape:window-x="-8"
     inkscape:window-y="-8"
     inkscape:window-maximized="1"
     inkscape:current-layer="g4329" /><g
     id="g4329"
     inkscape:groupmode="layer"
     inkscape:label="ink_ext_XXXXXX"
     transform="matrix(1.25,0,0,-1.25,0,540)"><g
       id="g4331"
       transform="scale(0.1,0.1)"><path
         d="m 0,0 5760,0 0,4320 L 0,4320 0,0 Z"
         style="fill:#ffffff;fill-opacity:1;fill-rule:nonzero;stroke:none"
         id="path4333"
         inkscape:connector-curvature="0" /><path
         d="m 720,432 4464,0 0,3456 -4464,0 0,-3456 z"
         style="fill:#ffffff;fill-opacity:1;fill-rule:nonzero;stroke:none"
         id="path4335"
         inkscape:connector-curvature="0" /><g
         id="g4337"><g
           id="g4339"
           clip-path="url(#clipPath4341)"><path
             d="m 720,3521.42 61.031,-0.98 61.032,-2.95 61.031,-4.93 61.031,-6.92 61.035,-8.95 61.03,-10.99 61.03,-13.09 61.03,-15.23 61.03,-17.43 61.03,-19.7 61.03,-22.05 61.04,-24.49 61.03,-27.06 61.03,-29.74 61.03,-32.59 52.31,-30.34 52.31,-32.7 52.32,-35.21 52.31,-37.91 52.31,-40.82 52.31,-43.98 43.6,-39.3 43.59,-41.92 43.59,-44.79 43.6,-47.98 43.59,-51.52 43.6,-55.54 34.87,-47.71 34.88,-51.03 34.87,-54.82 34.88,-59.21 34.87,-64.42 26.16,-52.38 26.15,-56.55 26.16,-61.57 26.16,-67.8 26.15,-75.87 17.44,-56.43 17.44,-62.68 17.43,-71.14 17.44,-83.58 8.72,-48.75 8.72,-55.7 8.72,-66.14 8.72,-83.94 8.72,-122.76 8.71,-309.9 8.72,186.16 8.72,110.84 8.72,45.93 8.72,20.82 8.72,6.28 8.72,-4.24 8.72,-13.22 8.72,-22.2 8.71,-32.59 8.72,-46.84 8.72,-70.95 8.72,-130.63 8.72,-289.216 8.72,333.886 8.72,98.79 8.71,56.83 8.72,37.78 8.72,26.47 8.72,18.7 8.72,12.83 8.72,8.05 8.72,3.94 8.72,0.19 8.71,-3.37 8.72,-6.95 8.72,-10.7 8.72,-14.84 8.72,-19.69 8.72,-25.73 8.72,-33.88 8.72,-46.12 8.71,-67.82 8.72,-121.04 8.72,-427.138 8.72,450.028 8.72,108.01 8.72,62.86 8.72,43.25 8.72,31.94 8.72,24.37 8.71,18.79 8.72,14.37 8.72,10.68 8.72,7.46 8.72,4.51 8.72,1.72 8.72,-1.02 8.72,-3.81 8.71,-6.76 8.72,-9.99 8.72,-13.69 8.72,-18.12 8.72,-23.74 8.72,-31.38 8.72,-42.83 8.71,-62.77 8.72,-109.25 8.72,-521.523 8.72,508.993 8.72,119.36 8.72,67.75 8.72,46.37 8.72,34.19 8.71,26 8.72,19.81 8.72,14.73 8.72,10.24 8.72,5.97 8.72,1.63 8.72,-3.11 8.72,-8.65 8.71,-15.71 8.72,-25.68 8.72,-41.79 8.72,-74.69 8.72,-196.38 8.72,86.9 8.72,175.71 8.72,93.49 8.71,66.4 8.72,52.54 8.72,44.01 17.44,72.05 17.44,58.48 17.43,49.65 17.44,43.31 17.44,38.47 17.44,34.61 26.15,46.11 26.16,40.48 26.16,35.9 26.15,32.05 26.16,28.75 26.15,25.85 26.16,23.28 26.16,20.96 34.87,24.7 34.88,21.34 34.87,18.29 34.88,15.49 34.87,12.87 34.88,10.43 34.87,8.11 34.88,5.9 34.87,3.75 34.88,1.69 34.87,-0.33 34.88,-2.32 34.87,-4.29 34.88,-6.25 34.87,-8.21 34.88,-10.19 34.87,-12.21 34.88,-14.26 34.87,-16.37 34.88,-18.57 34.87,-20.86 34.88,-23.28 34.87,-25.84 34.88,-28.59 34.87,-31.6 34.88,-34.91 34.87,-38.65 34.88,-42.94 26.15,-35.5 26.16,-38.83 26.16,-42.85 26.15,-47.82 17.44,-35.39 17.44,-38.96 17.43,-43.58 17.44,-49.86 17.44,-59.09 8.72,-34.64 8.72,-39.65 8.72,-46.88 8.71,-58.31 8.72,-79.39 8.72,-132.82 8.72,-401.472 8.72,411.142 8.72,98.75 8.72,55.04 8.72,36.35 8.71,25.81 8.72,19.01 8.72,14.19 8.72,10.56 8.72,7.71 8.72,5.37 8.72,3.39 8.72,1.68 8.71,0.14 8.72,-1.26 8.72,-2.57 8.72,-3.82 17.44,-11.3 17.44,-16.34 17.43,-21.97 17.44,-28.92 8.72,-17.81 8.72,-20.69 8.72,-24.38 8.72,-29.3 8.71,-36.33 8.72,-47.3 8.72,-67.14 8.72,-115.31 0,0"
             style="fill:none;stroke:#0000ff;stroke-width:10;stroke-linecap:square;stroke-linejoin:round;stroke-miterlimit:10;stroke-dasharray:none;stroke-opacity:1"
             id="path4345"
             inkscape:connector-curvature="0" /></g></g><path
         d="m 720,432 0,40"
         style="fill:#000000;fill-opacity:1;fill-rule:nonzero;stroke:none"
         id="path4347"
         inkscape:connector-curvature="0" /><path
         d="m 720,432 0,40"
         style="fill:none;stroke:#000000;stroke-width:5;stroke-linecap:butt;stroke-linejoin:round;stroke-miterlimit:10;stroke-dasharray:none;stroke-opacity:1"
         id="path4349"
         inkscape:connector-curvature="0" /><path
         d="m 720,3888 0,-40"
         style="fill:#000000;fill-opacity:1;fill-rule:nonzero;stroke:none"
         id="path4351"
         inkscape:connector-curvature="0" /><path
         d="m 720,3888 0,-40"
         style="fill:none;stroke:#000000;stroke-width:5;stroke-linecap:butt;stroke-linejoin:round;stroke-miterlimit:10;stroke-dasharray:none;stroke-opacity:1"
         id="path4353"
         inkscape:connector-curvature="0" /><g
         id="g4355"
         transform="scale(10,10)"><text
           transform="matrix(1,0,0,-1,62.9844,30.075)"
           style="font-variant:normal;font-weight:normal;font-size:12px;font-family:Arial;-inkscape-font-specification:Arial;writing-mode:lr-tb;fill:#000000;fill-opacity:1;fill-rule:nonzero;stroke:none"
           id="text4357"><tspan
             x="0 7.6289053 11.994141"
             y="0"
             sodipodi:role="line"
             id="tspan4359">0.0</tspan></text>
</g><path
         d="m 1612.8,432 0,40"
         style="fill:#000000;fill-opacity:1;fill-rule:nonzero;stroke:none"
         id="path4361"
         inkscape:connector-curvature="0" /><path
         d="m 1612.8,432 0,40"
         style="fill:none;stroke:#000000;stroke-width:5;stroke-linecap:butt;stroke-linejoin:round;stroke-miterlimit:10;stroke-dasharray:none;stroke-opacity:1"
         id="path4363"
         inkscape:connector-curvature="0" /><path
         d="m 1612.8,3888 0,-40"
         style="fill:#000000;fill-opacity:1;fill-rule:nonzero;stroke:none"
         id="path4365"
         inkscape:connector-curvature="0" /><path
         d="m 1612.8,3888 0,-40"
         style="fill:none;stroke:#000000;stroke-width:5;stroke-linecap:butt;stroke-linejoin:round;stroke-miterlimit:10;stroke-dasharray:none;stroke-opacity:1"
         id="path4367"
         inkscape:connector-curvature="0" /><g
         id="g4369"
         transform="scale(10,10)"><text
           transform="matrix(1,0,0,-1,152.507,30.075)"
           style="font-variant:normal;font-weight:normal;font-size:12px;font-family:Arial;-inkscape-font-specification:Arial;writing-mode:lr-tb;fill:#000000;fill-opacity:1;fill-rule:nonzero;stroke:none"
           id="text4371"><tspan
             x="0 7.6289115 11.994141"
             y="0"
             sodipodi:role="line"
             id="tspan4373">0.1</tspan></text>
</g><path
         d="m 2505.6,432 0,40"
         style="fill:#000000;fill-opacity:1;fill-rule:nonzero;stroke:none"
         id="path4375"
         inkscape:connector-curvature="0" /><path
         d="m 2505.6,432 0,40"
         style="fill:none;stroke:#000000;stroke-width:5;stroke-linecap:butt;stroke-linejoin:round;stroke-miterlimit:10;stroke-dasharray:none;stroke-opacity:1"
         id="path4377"
         inkscape:connector-curvature="0" /><path
         d="m 2505.6,3888 0,-40"
         style="fill:#000000;fill-opacity:1;fill-rule:nonzero;stroke:none"
         id="path4379"
         inkscape:connector-curvature="0" /><path
         d="m 2505.6,3888 0,-40"
         style="fill:none;stroke:#000000;stroke-width:5;stroke-linecap:butt;stroke-linejoin:round;stroke-miterlimit:10;stroke-dasharray:none;stroke-opacity:1"
         id="path4381"
         inkscape:connector-curvature="0" /><g
         id="g4383"
         transform="scale(10,10)"><text
           transform="matrix(1,0,0,-1,241.545,30.075)"
           style="font-variant:normal;font-weight:normal;font-size:12px;font-family:Arial;-inkscape-font-specification:Arial;writing-mode:lr-tb;fill:#000000;fill-opacity:1;fill-rule:nonzero;stroke:none"
           id="text4385"><tspan
             x="0 7.6288996 11.994141"
             y="0"
             sodipodi:role="line"
             id="tspan4387">0.2</tspan></text>
</g><path
         d="m 3398.4,432 0,40"
         style="fill:#000000;fill-opacity:1;fill-rule:nonzero;stroke:none"
         id="path4389"
         inkscape:connector-curvature="0" /><path
         d="m 3398.4,432 0,40"
         style="fill:none;stroke:#000000;stroke-width:5;stroke-linecap:butt;stroke-linejoin:round;stroke-miterlimit:10;stroke-dasharray:none;stroke-opacity:1"
         id="path4391"
         inkscape:connector-curvature="0" /><path
         d="m 3398.4,3888 0,-40"
         style="fill:#000000;fill-opacity:1;fill-rule:nonzero;stroke:none"
         id="path4393"
         inkscape:connector-curvature="0" /><path
         d="m 3398.4,3888 0,-40"
         style="fill:none;stroke:#000000;stroke-width:5;stroke-linecap:butt;stroke-linejoin:round;stroke-miterlimit:10;stroke-dasharray:none;stroke-opacity:1"
         id="path4395"
         inkscape:connector-curvature="0" /><g
         id="g4397"
         transform="scale(10,10)"><text
           transform="matrix(1,0,0,-1,330.879,30.075)"
           style="font-variant:normal;font-weight:normal;font-size:12px;font-family:Arial;-inkscape-font-specification:Arial;writing-mode:lr-tb;fill:#000000;fill-opacity:1;fill-rule:nonzero;stroke:none"
           id="text4399"><tspan
             x="0 7.6288996 11.994141"
             y="0"
             sodipodi:role="line"
             id="tspan4401">0.3</tspan></text>
</g><path
         d="m 4291.2,432 0,40"
         style="fill:#000000;fill-opacity:1;fill-rule:nonzero;stroke:none"
         id="path4403"
         inkscape:connector-curvature="0" /><path
         d="m 4291.2,432 0,40"
         style="fill:none;stroke:#000000;stroke-width:5;stroke-linecap:butt;stroke-linejoin:round;stroke-miterlimit:10;stroke-dasharray:none;stroke-opacity:1"
         id="path4405"
         inkscape:connector-curvature="0" /><path
         d="m 4291.2,3888 0,-40"
         style="fill:#000000;fill-opacity:1;fill-rule:nonzero;stroke:none"
         id="path4407"
         inkscape:connector-curvature="0" /><path
         d="m 4291.2,3888 0,-40"
         style="fill:none;stroke:#000000;stroke-width:5;stroke-linecap:butt;stroke-linejoin:round;stroke-miterlimit:10;stroke-dasharray:none;stroke-opacity:1"
         id="path4409"
         inkscape:connector-curvature="0" /><g
         id="g4411"
         transform="scale(10,10)"><text
           transform="matrix(1,0,0,-1,420.003,30.075)"
           style="font-variant:normal;font-weight:normal;font-size:12px;font-family:Arial;-inkscape-font-specification:Arial;writing-mode:lr-tb;fill:#000000;fill-opacity:1;fill-rule:nonzero;stroke:none"
           id="text4413"><tspan
             x="0 7.6289239 11.994141"
             y="0"
             sodipodi:role="line"
             id="tspan4415">0.4</tspan></text>
</g><path
         d="m 5184,432 0,40"
         style="fill:#000000;fill-opacity:1;fill-rule:nonzero;stroke:none"
         id="path4417"
         inkscape:connector-curvature="0" /><path
         d="m 5184,432 0,40"
         style="fill:none;stroke:#000000;stroke-width:5;stroke-linecap:butt;stroke-linejoin:round;stroke-miterlimit:10;stroke-dasharray:none;stroke-opacity:1"
         id="path4419"
         inkscape:connector-curvature="0" /><path
         d="m 5184,3888 0,-40"
         style="fill:#000000;fill-opacity:1;fill-rule:nonzero;stroke:none"
         id="path4421"
         inkscape:connector-curvature="0" /><path
         d="m 5184,3888 0,-40"
         style="fill:none;stroke:#000000;stroke-width:5;stroke-linecap:butt;stroke-linejoin:round;stroke-miterlimit:10;stroke-dasharray:none;stroke-opacity:1"
         id="path4423"
         inkscape:connector-curvature="0" /><g
         id="g4425"
         transform="scale(10,10)"><text
           transform="matrix(1,0,0,-1,509.416,30.075)"
           style="font-variant:normal;font-weight:normal;font-size:12px;font-family:Arial;-inkscape-font-specification:Arial;writing-mode:lr-tb;fill:#000000;fill-opacity:1;fill-rule:nonzero;stroke:none"
           id="text4427"><tspan
             x="0 7.6289239 11.994141"
             y="0"
             sodipodi:role="line"
             id="tspan4429">0.5</tspan><tspan
             x="-281.31699 -272.34042 -265.05725 -259.93616 -248.26428 -241.05725 -237.76428 -234.4713 -228.2193 -221.07086 -213.5943 -209.37555 -204.32477 -196.73102 -189.25446 -181.66071 -176.93219 -172.71344 -165.81696 -160.69586 -153.54742"
             y="16.5469"
             sodipodi:role="line"
             id="tspan4431">Normalised Input Freq</tspan></text>
</g><path
         d="m 720,432 40,0"
         style="fill:#000000;fill-opacity:1;fill-rule:nonzero;stroke:none"
         id="path4433"
         inkscape:connector-curvature="0" /><path
         d="m 720,432 40,0"
         style="fill:none;stroke:#000000;stroke-width:5;stroke-linecap:butt;stroke-linejoin:round;stroke-miterlimit:10;stroke-dasharray:none;stroke-opacity:1"
         id="path4435"
         inkscape:connector-curvature="0" /><path
         d="m 5184,432 -40,0"
         style="fill:#000000;fill-opacity:1;fill-rule:nonzero;stroke:none"
         id="path4437"
         inkscape:connector-curvature="0" /><path
         d="m 5184,432 -40,0"
         style="fill:none;stroke:#000000;stroke-width:5;stroke-linecap:butt;stroke-linejoin:round;stroke-miterlimit:10;stroke-dasharray:none;stroke-opacity:1"
         id="path4439"
         inkscape:connector-curvature="0" /><g
         id="g4441"
         transform="scale(10,10)"><text
           transform="matrix(1,0,0,-1,37.375,39.8484)"
           style="font-variant:normal;font-weight:normal;font-size:12px;font-family:Arial;-inkscape-font-specification:Arial;writing-mode:lr-tb;fill:#000000;fill-opacity:1;fill-rule:nonzero;stroke:none"
           id="text4443"><tspan
             x="0 9.8203125 17.449217 25.078123"
             y="0"
             sodipodi:role="line"
             id="tspan4445">−160</tspan></text>
</g><path
         d="m 720,816 40,0"
         style="fill:#000000;fill-opacity:1;fill-rule:nonzero;stroke:none"
         id="path4447"
         inkscape:connector-curvature="0" /><path
         d="m 720,816 40,0"
         style="fill:none;stroke:#000000;stroke-width:5;stroke-linecap:butt;stroke-linejoin:round;stroke-miterlimit:10;stroke-dasharray:none;stroke-opacity:1"
         id="path4449"
         inkscape:connector-curvature="0" /><path
         d="m 5184,816 -40,0"
         style="fill:#000000;fill-opacity:1;fill-rule:nonzero;stroke:none"
         id="path4451"
         inkscape:connector-curvature="0" /><path
         d="m 5184,816 -40,0"
         style="fill:none;stroke:#000000;stroke-width:5;stroke-linecap:butt;stroke-linejoin:round;stroke-miterlimit:10;stroke-dasharray:none;stroke-opacity:1"
         id="path4453"
         inkscape:connector-curvature="0" /><g
         id="g4455"
         transform="scale(10,10)"><text
           transform="matrix(1,0,0,-1,37.375,78.2484)"
           style="font-variant:normal;font-weight:normal;font-size:12px;font-family:Arial;-inkscape-font-specification:Arial;writing-mode:lr-tb;fill:#000000;fill-opacity:1;fill-rule:nonzero;stroke:none"
           id="text4457"><tspan
             x="0 9.8203125 17.449217 25.078123"
             y="0"
             sodipodi:role="line"
             id="tspan4459">−140</tspan></text>
</g><path
         d="m 720,1200 40,0"
         style="fill:#000000;fill-opacity:1;fill-rule:nonzero;stroke:none"
         id="path4461"
         inkscape:connector-curvature="0" /><path
         d="m 720,1200 40,0"
         style="fill:none;stroke:#000000;stroke-width:5;stroke-linecap:butt;stroke-linejoin:round;stroke-miterlimit:10;stroke-dasharray:none;stroke-opacity:1"
         id="path4463"
         inkscape:connector-curvature="0" /><path
         d="m 5184,1200 -40,0"
         style="fill:#000000;fill-opacity:1;fill-rule:nonzero;stroke:none"
         id="path4465"
         inkscape:connector-curvature="0" /><path
         d="m 5184,1200 -40,0"
         style="fill:none;stroke:#000000;stroke-width:5;stroke-linecap:butt;stroke-linejoin:round;stroke-miterlimit:10;stroke-dasharray:none;stroke-opacity:1"
         id="path4467"
         inkscape:connector-curvature="0" /><g
         id="g4469"
         transform="scale(10,10)"><text
           transform="matrix(1,0,0,-1,37.375,116.648)"
           style="font-variant:normal;font-weight:normal;font-size:12px;font-family:Arial;-inkscape-font-specification:Arial;writing-mode:lr-tb;fill:#000000;fill-opacity:1;fill-rule:nonzero;stroke:none"
           id="text4471"><tspan
             x="0 9.8203125 17.449217 25.078123"
             y="0"
             sodipodi:role="line"
             id="tspan4473">−120</tspan></text>
</g><path
         d="m 720,1584 40,0"
         style="fill:#000000;fill-opacity:1;fill-rule:nonzero;stroke:none"
         id="path4475"
         inkscape:connector-curvature="0" /><path
         d="m 720,1584 40,0"
         style="fill:none;stroke:#000000;stroke-width:5;stroke-linecap:butt;stroke-linejoin:round;stroke-miterlimit:10;stroke-dasharray:none;stroke-opacity:1"
         id="path4477"
         inkscape:connector-curvature="0" /><path
         d="m 5184,1584 -40,0"
         style="fill:#000000;fill-opacity:1;fill-rule:nonzero;stroke:none"
         id="path4479"
         inkscape:connector-curvature="0" /><path
         d="m 5184,1584 -40,0"
         style="fill:none;stroke:#000000;stroke-width:5;stroke-linecap:butt;stroke-linejoin:round;stroke-miterlimit:10;stroke-dasharray:none;stroke-opacity:1"
         id="path4481"
         inkscape:connector-curvature="0" /><g
         id="g4483"
         transform="scale(10,10)"><text
           transform="matrix(1,0,0,-1,37.375,155.048)"
           style="font-variant:normal;font-weight:normal;font-size:12px;font-family:Arial;-inkscape-font-specification:Arial;writing-mode:lr-tb;fill:#000000;fill-opacity:1;fill-rule:nonzero;stroke:none"
           id="text4485"><tspan
             x="0 9.8203125 17.449217 25.078123"
             y="0"
             sodipodi:role="line"
             id="tspan4487">−100</tspan></text>
</g><path
         d="m 720,1968 40,0"
         style="fill:#000000;fill-opacity:1;fill-rule:nonzero;stroke:none"
         id="path4489"
         inkscape:connector-curvature="0" /><path
         d="m 720,1968 40,0"
         style="fill:none;stroke:#000000;stroke-width:5;stroke-linecap:butt;stroke-linejoin:round;stroke-miterlimit:10;stroke-dasharray:none;stroke-opacity:1"
         id="path4491"
         inkscape:connector-curvature="0" /><path
         d="m 5184,1968 -40,0"
         style="fill:#000000;fill-opacity:1;fill-rule:nonzero;stroke:none"
         id="path4493"
         inkscape:connector-curvature="0" /><path
         d="m 5184,1968 -40,0"
         style="fill:none;stroke:#000000;stroke-width:5;stroke-linecap:butt;stroke-linejoin:round;stroke-miterlimit:10;stroke-dasharray:none;stroke-opacity:1"
         id="path4495"
         inkscape:connector-curvature="0" /><g
         id="g4497"
         transform="scale(10,10)"><text
           transform="matrix(1,0,0,-1,45,193.448)"
           style="font-variant:normal;font-weight:normal;font-size:12px;font-family:Arial;-inkscape-font-specification:Arial;writing-mode:lr-tb;fill:#000000;fill-opacity:1;fill-rule:nonzero;stroke:none"
           id="text4499"><tspan
             x="0 9.8203154 17.449221"
             y="0"
             sodipodi:role="line"
             id="tspan4501">−80</tspan></text>
</g><path
         d="m 720,2352 40,0"
         style="fill:#000000;fill-opacity:1;fill-rule:nonzero;stroke:none"
         id="path4503"
         inkscape:connector-curvature="0" /><path
         d="m 720,2352 40,0"
         style="fill:none;stroke:#000000;stroke-width:5;stroke-linecap:butt;stroke-linejoin:round;stroke-miterlimit:10;stroke-dasharray:none;stroke-opacity:1"
         id="path4505"
         inkscape:connector-curvature="0" /><path
         d="m 5184,2352 -40,0"
         style="fill:#000000;fill-opacity:1;fill-rule:nonzero;stroke:none"
         id="path4507"
         inkscape:connector-curvature="0" /><path
         d="m 5184,2352 -40,0"
         style="fill:none;stroke:#000000;stroke-width:5;stroke-linecap:butt;stroke-linejoin:round;stroke-miterlimit:10;stroke-dasharray:none;stroke-opacity:1"
         id="path4509"
         inkscape:connector-curvature="0" /><g
         id="g4511"
         transform="scale(10,10)"><text
           transform="matrix(1,0,0,-1,45,231.848)"
           style="font-variant:normal;font-weight:normal;font-size:12px;font-family:Arial;-inkscape-font-specification:Arial;writing-mode:lr-tb;fill:#000000;fill-opacity:1;fill-rule:nonzero;stroke:none"
           id="text4513"><tspan
             x="0 9.8203154 17.449221"
             y="0"
             sodipodi:role="line"
             id="tspan4515">−60</tspan></text>
</g><path
         d="m 720,2736 40,0"
         style="fill:#000000;fill-opacity:1;fill-rule:nonzero;stroke:none"
         id="path4517"
         inkscape:connector-curvature="0" /><path
         d="m 720,2736 40,0"
         style="fill:none;stroke:#000000;stroke-width:5;stroke-linecap:butt;stroke-linejoin:round;stroke-miterlimit:10;stroke-dasharray:none;stroke-opacity:1"
         id="path4519"
         inkscape:connector-curvature="0" /><path
         d="m 5184,2736 -40,0"
         style="fill:#000000;fill-opacity:1;fill-rule:nonzero;stroke:none"
         id="path4521"
         inkscape:connector-curvature="0" /><path
         d="m 5184,2736 -40,0"
         style="fill:none;stroke:#000000;stroke-width:5;stroke-linecap:butt;stroke-linejoin:round;stroke-miterlimit:10;stroke-dasharray:none;stroke-opacity:1"
         id="path4523"
         inkscape:connector-curvature="0" /><g
         id="g4525"
         transform="scale(10,10)"><text
           transform="matrix(1,0,0,-1,45,270.248)"
           style="font-variant:normal;font-weight:normal;font-size:12px;font-family:Arial;-inkscape-font-specification:Arial;writing-mode:lr-tb;fill:#000000;fill-opacity:1;fill-rule:nonzero;stroke:none"
           id="text4527"><tspan
             x="0 9.8203154 17.449221"
             y="0"
             sodipodi:role="line"
             id="tspan4529">−40</tspan></text>
</g><path
         d="m 720,3120 40,0"
         style="fill:#000000;fill-opacity:1;fill-rule:nonzero;stroke:none"
         id="path4531"
         inkscape:connector-curvature="0" /><path
         d="m 720,3120 40,0"
         style="fill:none;stroke:#000000;stroke-width:5;stroke-linecap:butt;stroke-linejoin:round;stroke-miterlimit:10;stroke-dasharray:none;stroke-opacity:1"
         id="path4533"
         inkscape:connector-curvature="0" /><path
         d="m 5184,3120 -40,0"
         style="fill:#000000;fill-opacity:1;fill-rule:nonzero;stroke:none"
         id="path4535"
         inkscape:connector-curvature="0" /><path
         d="m 5184,3120 -40,0"
         style="fill:none;stroke:#000000;stroke-width:5;stroke-linecap:butt;stroke-linejoin:round;stroke-miterlimit:10;stroke-dasharray:none;stroke-opacity:1"
         id="path4537"
         inkscape:connector-curvature="0" /><g
         id="g4539"
         transform="scale(10,10)"><text
           transform="matrix(1,0,0,-1,45,308.648)"
           style="font-variant:normal;font-weight:normal;font-size:12px;font-family:Arial;-inkscape-font-specification:Arial;writing-mode:lr-tb;fill:#000000;fill-opacity:1;fill-rule:nonzero;stroke:none"
           id="text4541"><tspan
             x="0 9.8203154 17.449221"
             y="0"
             sodipodi:role="line"
             id="tspan4543">−20</tspan></text>
</g><path
         d="m 720,3504 40,0"
         style="fill:#000000;fill-opacity:1;fill-rule:nonzero;stroke:none"
         id="path4545"
         inkscape:connector-curvature="0" /><path
         d="m 720,3504 40,0"
         style="fill:none;stroke:#000000;stroke-width:5;stroke-linecap:butt;stroke-linejoin:round;stroke-miterlimit:10;stroke-dasharray:none;stroke-opacity:1"
         id="path4547"
         inkscape:connector-curvature="0" /><path
         d="m 5184,3504 -40,0"
         style="fill:#000000;fill-opacity:1;fill-rule:nonzero;stroke:none"
         id="path4549"
         inkscape:connector-curvature="0" /><path
         d="m 5184,3504 -40,0"
         style="fill:none;stroke:#000000;stroke-width:5;stroke-linecap:butt;stroke-linejoin:round;stroke-miterlimit:10;stroke-dasharray:none;stroke-opacity:1"
         id="path4551"
         inkscape:connector-curvature="0" /><g
         id="g4553"
         transform="scale(10,10)"><text
           transform="matrix(1,0,0,-1,61.9531,347.048)"
           style="font-variant:normal;font-weight:normal;font-size:12px;font-family:Arial;-inkscape-font-specification:Arial;writing-mode:lr-tb;fill:#000000;fill-opacity:1;fill-rule:nonzero;stroke:none"
           id="text4555"><tspan
             x="0"
             y="0"
             id="tspan4557">0</tspan></text>
</g><path
         d="m 720,3888 40,0"
         style="fill:#000000;fill-opacity:1;fill-rule:nonzero;stroke:none"
         id="path4559"
         inkscape:connector-curvature="0" /><path
         d="m 720,3888 40,0"
         style="fill:none;stroke:#000000;stroke-width:5;stroke-linecap:butt;stroke-linejoin:round;stroke-miterlimit:10;stroke-dasharray:none;stroke-opacity:1"
         id="path4561"
         inkscape:connector-curvature="0" /><path
         d="m 5184,3888 -40,0"
         style="fill:#000000;fill-opacity:1;fill-rule:nonzero;stroke:none"
         id="path4563"
         inkscape:connector-curvature="0" /><path
         d="m 5184,3888 -40,0"
         style="fill:none;stroke:#000000;stroke-width:5;stroke-linecap:butt;stroke-linejoin:round;stroke-miterlimit:10;stroke-dasharray:none;stroke-opacity:1"
         id="path4565"
         inkscape:connector-curvature="0" /><g
         id="g4567"
         transform="scale(10,10)"><text
           transform="matrix(1,0,0,-1,54.4688,385.448)"
           style="font-variant:normal;font-weight:normal;font-size:12px;font-family:Arial;-inkscape-font-specification:Arial;writing-mode:lr-tb;fill:#000000;fill-opacity:1;fill-rule:nonzero;stroke:none"
           id="text4569"><tspan
             x="0 7.6289053"
             y="0"
             sodipodi:role="line"
             id="tspan4571">20</tspan></text>
<text
           transform="matrix(0,1,1,0,29.8906,154.227)"
           style="font-variant:normal;font-weight:normal;font-size:12px;font-family:Arial;-inkscape-font-specification:Arial;writing-mode:lr-tb;fill:#000000;fill-opacity:1;fill-rule:nonzero;stroke:none"
           id="text4573"><tspan
             x="0 10.113277 17.320309 24.796871 32.390625 35.683594 40.412106 48.005859 55.482422 62.630856 66.849609 74.943367 82.091805 88.343803 95.820366 103.10356 110.69731 116.94931"
             y="0"
             sodipodi:role="line"
             id="tspan4575">Magnitude Response</tspan></text>
</g><path
         d="m 720,3888 4464,0"
         style="fill:none;stroke:#000000;stroke-width:10;stroke-linecap:butt;stroke-linejoin:round;stroke-miterlimit:10;stroke-dasharray:none;stroke-opacity:1"
         id="path4577"
         inkscape:connector-curvature="0" /><path
         d="m 5184,432 0,3456"
         style="fill:none;stroke:#000000;stroke-width:10;stroke-linecap:butt;stroke-linejoin:round;stroke-miterlimit:10;stroke-dasharray:none;stroke-opacity:1"
         id="path4579"
         inkscape:connector-curvature="0" /><path
         d="m 720,432 4464,0"
         style="fill:none;stroke:#000000;stroke-width:10;stroke-linecap:butt;stroke-linejoin:round;stroke-miterlimit:10;stroke-dasharray:none;stroke-opacity:1"
         id="path4581"
         inkscape:connector-curvature="0" /><path
         d="m 720,432 0,3456"
         style="fill:none;stroke:#000000;stroke-width:10;stroke-linecap:butt;stroke-linejoin:round;stroke-miterlimit:10;stroke-dasharray:none;stroke-opacity:1"
         id="path4583"
         inkscape:connector-curvature="0" /></g><path
       style="fill:none;fill-rule:evenodd;stroke:#000000;stroke-width:0.85721457;stroke-linecap:butt;stroke-linejoin:miter;stroke-miterlimit:4;stroke-dasharray:none;stroke-opacity:1"
       d="m 295.68286,43.765413 0,344.940947"
       id="path4386-8"
       inkscape:connector-curvature="0" /><rect
       style="fill:#ff0000;fill-opacity:0.48520711;stroke:none;stroke-width:0.85119998;stroke-miterlimit:4;stroke-dasharray:none;stroke-opacity:1"
       id="rect4409-9"
       width="32.193348"
       height="344.87103"
       x="263.06241"
       y="-388.63388"
       transform="scale(1,-1)" /><rect
       style="fill:#ff0000;fill-opacity:0.48520711;stroke:none;stroke-width:0.85119998;stroke-miterlimit:4;stroke-dasharray:none;stroke-opacity:1"
       id="rect4409-7-4"
       width="36.435398"
       height="344.87103"
       x="295.91006"
       y="-388.48257"
       transform="scale(1,-1)" /><text
       xml:space="preserve"
       style="font-style:normal;font-weight:normal;font-size:12px;line-height:125%;font-family:Sans;letter-spacing:0px;word-spacing:0px;fill:#000000;fill-opacity:1;stroke:none;stroke-width:1px;stroke-linecap:butt;stroke-linejoin:miter;stroke-opacity:1"
       x="-310.85306"
       y="-275.74561"
       id="text4494-7"
       sodipodi:linespacing="125%"
       transform="matrix(0,-1,-1,0,0,0)"><tspan
         sodipodi:role="line"
         id="tspan4496-3"
         x="-310.85306"
         y="-275.74561"
         style="font-size:14px">Stopband</tspan></text>
<text
       xml:space="preserve"
       style="font-style:normal;font-weight:normal;font-size:12px;line-height:125%;font-family:Sans;letter-spacing:0px;word-spacing:0px;fill:#000000;fill-opacity:1;stroke:none;stroke-width:1px;stroke-linecap:butt;stroke-linejoin:miter;stroke-opacity:1"
       x="-310.85306"
       y="-307.37079"
       id="text4494-79"
       sodipodi:linespacing="125%"
       transform="matrix(0,-1,-1,0,0,0)"><tspan
         sodipodi:role="line"
         id="tspan4496-2"
         x="-310.85306"
         y="-307.37079"
         style="font-size:14px">Stopband</tspan></text>
<rect
       style="fill:#ff0000;fill-opacity:0.48520711;stroke:none;stroke-width:0.85119998;stroke-miterlimit:4;stroke-dasharray:none;stroke-opacity:1"
       id="rect4409-7-4-3"
       width="32.77438"
       height="344.87103"
       x="485.71536"
       y="-388.59445"
       transform="scale(1,-1)" /><text
       xml:space="preserve"
       style="font-style:normal;font-weight:normal;font-size:12px;line-height:125%;font-family:Sans;letter-spacing:0px;word-spacing:0px;fill:#000000;fill-opacity:1;stroke:none;stroke-width:1px;stroke-linecap:butt;stroke-linejoin:miter;stroke-opacity:1"
       x="-310.85306"
       y="-494.80945"
       id="text4494-79-3"
       sodipodi:linespacing="125%"
       transform="matrix(0,-1,-1,0,0,0)"><tspan
         sodipodi:role="line"
         id="tspan4496-2-2"
         x="-310.85306"
         y="-494.80945"
         style="font-size:14px">Stopband</tspan></text>
<rect
       style="fill:#00ff00;fill-opacity:0.48520711;stroke:none;stroke-width:0.85119998;stroke-miterlimit:4;stroke-dasharray:none;stroke-opacity:1"
       id="rect4409-5"
       width="18.195957"
       height="344.87103"
       x="71.471481"
       y="-389.24167"
       transform="scale(1,-1)" /><text
       xml:space="preserve"
       style="font-style:normal;font-weight:normal;font-size:14px;line-height:127.99999714%;font-family:Sans;letter-spacing:0px;word-spacing:0px;fill:#000000;fill-opacity:1;stroke:none;stroke-width:1px;stroke-linecap:butt;stroke-linejoin:miter;stroke-opacity:1"
       x="-311.40436"
       y="-74.928146"
       id="text4482"
       sodipodi:linespacing="128%"
       transform="matrix(-0.00133246,-0.99999911,-0.99999911,0.00133246,0,0)"><tspan
         sodipodi:role="line"
         x="-311.40436"
         y="-74.928146"
         id="tspan4486"><tspan
           style="font-size:14px"
           id="tspan4490"><tspan
   style="font-size:14px"
   id="tspan4492">Passban</tspan>d</tspan></tspan></text>
<path
       style="fill:none;fill-rule:evenodd;stroke:#000000;stroke-width:0.6408;stroke-linecap:butt;stroke-linejoin:miter;stroke-opacity:1;stroke-miterlimit:4;stroke-dasharray:none;marker-start:url(#Arrow2Lstart-6);marker-end:url(#Arrow2Lend-4)"
       d="m 73.07098,356.31648 15.515406,0"
       id="path4820-7"
       inkscape:connector-curvature="0" /><text
       xml:space="preserve"
       style="font-style:normal;font-weight:normal;font-size:14px;line-height:125%;font-family:Sans;letter-spacing:0px;word-spacing:0px;fill:#000000;fill-opacity:1;stroke:none;stroke-width:1px;stroke-linecap:butt;stroke-linejoin:miter;stroke-opacity:1"
       x="73.91291"
       y="-365.40128"
       id="text4853-3"
       sodipodi:linespacing="125%"
       transform="scale(1,-1)"><tspan
         sodipodi:role="line"
         x="73.91291"
         y="-365.40128"
         id="tspan4857-1">Bandwidth</tspan></text>
<text
       xml:space="preserve"
       style="font-style:normal;font-weight:normal;font-size:14px;line-height:125%;font-family:Sans;letter-spacing:0px;word-spacing:0px;fill:#000000;fill-opacity:1;stroke:none;stroke-width:1px;stroke-linecap:butt;stroke-linejoin:miter;stroke-opacity:1"
       x="307.57962"
       y="-366.38803"
       id="text4853-3-7"
       sodipodi:linespacing="125%"
       transform="scale(1,-1)"><tspan
         sodipodi:role="line"
         x="307.57962"
         y="-366.38803"
         id="tspan4857-1-6">Bandwidth</tspan></text>
<path
       style="fill:none;fill-rule:evenodd;stroke:#000000;stroke-width:0.91637731;stroke-linecap:butt;stroke-linejoin:miter;stroke-miterlimit:4;stroke-dasharray:none;stroke-opacity:1;marker-start:url(#Arrow2Lstart-6-7);marker-end:url(#Arrow2Lend-4-0)"
       d="m 297.6419,356.84657 31.72974,0"
       id="path4820-7-6"
       inkscape:connector-curvature="0" /></g></svg>